<?xml version="1.0" encoding="UTF-8"?>
<!DOCTYPE svg PUBLIC "-//W3C//DTD SVG 1.1//EN" "http://www.w3.org/Graphics/SVG/1.1/DTD/svg11.dtd">
<svg xmlns="http://www.w3.org/2000/svg" version="1.1" width="1133px" height="1225px" style="shape-rendering:geometricPrecision; text-rendering:geometricPrecision; image-rendering:optimizeQuality; fill-rule:evenodd; clip-rule:evenodd" xmlns:xlink="http://www.w3.org/1999/xlink">
<g><path style="opacity:0.801" fill="#6e6a6b" d="M 643.5,190.5 C 682.118,248.068 713.118,309.734 736.5,375.5C 557.109,414.159 406.776,501.659 285.5,638C 410.2,770.38 561.867,856.213 740.5,895.5C 716.782,967.934 683.282,1035.27 640,1097.5C 622.693,1121.3 604.86,1144.63 586.5,1167.5C 584.733,1168.26 582.9,1168.92 581,1169.5C 414.339,1116.46 285.672,1015.46 195,866.5C 106.008,711.536 80.3413,546.536 118,371.5C 248.231,251.276 402.564,189.942 581,187.5C 601.877,187.76 622.71,188.76 643.5,190.5 Z"/></g>
<g><path style="opacity:0.997" fill="#1588fb" d="M 643.5,190.5 C 797.049,206.124 930.215,265.791 1043,369.5C 1083.93,557.179 1052.93,731.846 950,893.5C 860.483,1026.54 739.316,1117.87 586.5,1167.5C 604.86,1144.63 622.693,1121.3 640,1097.5C 683.282,1035.27 716.782,967.934 740.5,895.5C 789.849,743.966 794.683,590.966 755,436.5C 749.328,415.987 743.162,395.654 736.5,375.5C 713.118,309.734 682.118,248.068 643.5,190.5 Z"/></g>
</svg>
